<svg xmlns="http://www.w3.org/2000/svg" fill="none" viewBox="0 0 605 176" class="w-16"><title>aifun</title><g clip-path="url(#a)"><rect width="36" height="124" x="210" y="53" fill="currentColor" rx="4"></rect><circle cx="228.8" cy="20.5" r="20.5" fill="url(#b)"></circle><path fill="currentColor" fill-rule="evenodd" d="M291 21c-12 14-12 32-12 32h-15c-2 0-4 2-4 4v28c0 2 2 4 4 4h15v84c0 2 2 4 4 4h28c3 0 4-2 4-4V89h20c3 0 4-2 4-4V57c0-2-1-4-4-4h-18s-1-6 2-10 9-5 9-5h22c3 0 4-2 4-4V6c0-2-1-4-4-4h-29c-7 0-18 6-30 19ZM571 161c-14 7-32 7-47 0v12c0 2-1 4-4 4h-27c-2 0-4-2-4-4v-65a58 58 0 0 1 116 0v65c0 2-1 4-4 4h-26c-2 0-4-2-4-4v-12Zm0-52a23 23 0 1 0-47 0v52c15 7 33 7 47 0v-52ZM358 53c-2 0-4 2-4 4v66c0 31 23 56 56 56 13 0 27-7 30-9 2 3 4 6 6 6h20c2 0 3-1 3-3V57c0-2-1-4-4-4h-26c-2 0-4 2-4 4v64a23 23 0 0 1-47 0V57c0-2-1-4-4-4h-26Z" clip-rule="evenodd"></path><path fill="url(#c)" fill-rule="evenodd" d="M182 173c10-4 14-16 9-26L124 10c-4-6-10-10-17-10H86c-6 0-13 4-16 10L2 147a20 20 0 0 0 35 18L97 44l59 120c5 10 16 14 26 9Z" clip-rule="evenodd"></path><path fill="url(#d)" d="M0 156c0-12 18-57 97-58 80-2 96 49 96 58 0 12-9 20-20 20-22 0-23-39-76-39s-57 39-77 39c-12 0-19-9-20-20Z"></path></g><defs><linearGradient id="b" x1="208.3" x2="249.3" y1="0" y2="41" gradientUnits="userSpaceOnUse"><stop stop-color="#F9A55C"></stop><stop offset="1" stop-color="#F9795C"></stop></linearGradient><linearGradient id="c" x1=".3" x2="193.3" y1="88" y2="88" gradientUnits="userSpaceOnUse"><stop stop-color="#FFCD31"></stop><stop offset=".2" stop-color="#69C45D"></stop><stop offset=".3" stop-color="#49C5EA"></stop><stop offset=".5" stop-color="#40AFF5"></stop><stop offset=".7" stop-color="#4076F1"></stop><stop offset=".9" stop-color="#8F3EF6"></stop></linearGradient><linearGradient id="d" x1=".3" x2="193.3" y1="137" y2="137" gradientUnits="userSpaceOnUse"><stop stop-color="#F79647"></stop><stop offset="1" stop-color="#ED5880"></stop></linearGradient><clipPath id="a"><path fill="#fff" d="M0 0h605v176H0z"></path></clipPath></defs></svg>